<svg width="67" height="101" fill="none" xmlns="http://www.w3.org/2000/svg"><path d="M57.153 10.126c-13.096-12.202-34.211-12.202-47.307 0-13.095 12.203-13.095 31.945 0 44.147 0 0 23.653 21.627 23.653 46.627 0-25 23.654-46.627 23.654-46.627 13.095-12.103 13.095-31.944 0-44.147Z" fill="#fff"/><path d="M47.712 46.139c-.61-3.274.101-6.846 0-10.219-.102-3.77-.71-7.44-.71-11.11 0-2.977.507-6.151-.508-9.028.101-.298.101-.695.203-.993.304-1.488-4.67-.694-5.38.596-.508.396-.711.893-.508 1.29.102.099.102.198.102.396-.914 4.464-2.234 8.73-3.757 13.095a257.52 257.52 0 0 1-1.827 4.862 67.034 67.034 0 0 1-2.335-4.663c-1.928-4.762-3.756-9.623-6.09-14.187.304-2.083-4.569-1.885-5.482 0-1.117 2.381-1.016 4.762-.61 7.242.407 2.877.508 5.655.508 8.532.102 5.556.508 11.012.61 16.568-.508.595-.61 1.19-.102 1.884.203.298.507.496.812.794 1.32.992 4.974.199 4.974-1.786 0-5.754-.406-11.408-.61-17.162v-1.687c.102.199.204.397.204.596.914 2.182 1.827 4.365 3.147 6.448 1.218 2.083 1.827 4.266 2.538 6.448-.305.298-.406.596-.305.992-.101.298.102.397.406.496.914.794 2.64.397 3.553 0 .406-.198.813-.396 1.218-.595.508-.297 1.219-.992 1.016-1.587 0-.1-.102-.298-.102-.397.71-1.786 1.015-3.571 1.421-5.456.406-1.984 1.117-3.87 1.828-5.754.101.893.101 1.686.203 2.58.304 3.57 0 7.043 0 10.614 0 1.19.101 2.282.304 3.373.102.496.508 2.48.406 2.58-.913.793-.609 1.785.508 1.984 1.32.297 2.944-.1 3.959-.992 1.624-1.39.812-3.77.406-5.754Z" fill="#6BC6B3"/></svg>